<svg xmlns="http://www.w3.org/2000/svg" version="1.1" xmlns:xlink="http://www.w3.org/1999/xlink" xmlns:svgjs="http://svgjs.com/svgjs" width="1000" height="1000" preserveAspectRatio="none" viewBox="0 0 1000 1000"><g mask="url(&quot;#SvgjsMask1034&quot;)" fill="none"><rect width="1000" height="1000" x="0" y="0" fill="rgba(36, 33, 50, 1)"></rect><path d="M415 927L414 591" stroke-width="8" stroke="url(#SvgjsLinearGradient1035)" stroke-linecap="round" class="Up"></path><path d="M164 248L163 -217" stroke-width="10" stroke="url(#SvgjsLinearGradient1035)" stroke-linecap="round" class="Up"></path><path d="M400 941L399 550" stroke-width="8" stroke="url(#SvgjsLinearGradient1036)" stroke-linecap="round" class="Down"></path><path d="M732 794L731 496" stroke-width="6" stroke="url(#SvgjsLinearGradient1035)" stroke-linecap="round" class="Up"></path><path d="M878 686L877 1220" stroke-width="10" stroke="url(#SvgjsLinearGradient1035)" stroke-linecap="round" class="Up"></path><path d="M302 909L301 1539" stroke-width="8" stroke="url(#SvgjsLinearGradient1036)" stroke-linecap="round" class="Down"></path><path d="M428 730L427 255" stroke-width="10" stroke="url(#SvgjsLinearGradient1035)" stroke-linecap="round" class="Up"></path><path d="M745 335L744 1073" stroke-width="10" stroke="url(#SvgjsLinearGradient1035)" stroke-linecap="round" class="Up"></path><path d="M479 714L478 67" stroke-width="8" stroke="url(#SvgjsLinearGradient1036)" stroke-linecap="round" class="Down"></path><path d="M186 429L185 1122" stroke-width="8" stroke="url(#SvgjsLinearGradient1036)" stroke-linecap="round" class="Down"></path><path d="M783 193L782 878" stroke-width="10" stroke="url(#SvgjsLinearGradient1036)" stroke-linecap="round" class="Down"></path><path d="M59 219L58 878" stroke-width="8" stroke="url(#SvgjsLinearGradient1036)" stroke-linecap="round" class="Down"></path><path d="M802 89L801 -330" stroke-width="8" stroke="url(#SvgjsLinearGradient1035)" stroke-linecap="round" class="Up"></path><path d="M200 158L199 828" stroke-width="8" stroke="url(#SvgjsLinearGradient1035)" stroke-linecap="round" class="Up"></path><path d="M747 475L746 -235" stroke-width="8" stroke="url(#SvgjsLinearGradient1036)" stroke-linecap="round" class="Down"></path><path d="M722 511L721 1031" stroke-width="8" stroke="url(#SvgjsLinearGradient1035)" stroke-linecap="round" class="Up"></path><path d="M777 190L776 872" stroke-width="8" stroke="url(#SvgjsLinearGradient1036)" stroke-linecap="round" class="Down"></path><path d="M613 35L612 -348" stroke-width="8" stroke="url(#SvgjsLinearGradient1035)" stroke-linecap="round" class="Up"></path><path d="M527 186L526 805" stroke-width="8" stroke="url(#SvgjsLinearGradient1036)" stroke-linecap="round" class="Down"></path><path d="M125 567L124 1186" stroke-width="10" stroke="url(#SvgjsLinearGradient1036)" stroke-linecap="round" class="Down"></path><path d="M299 290L298 654" stroke-width="10" stroke="url(#SvgjsLinearGradient1036)" stroke-linecap="round" class="Down"></path><path d="M422 607L421 982" stroke-width="6" stroke="url(#SvgjsLinearGradient1035)" stroke-linecap="round" class="Up"></path><path d="M127 623L126 267" stroke-width="8" stroke="url(#SvgjsLinearGradient1036)" stroke-linecap="round" class="Down"></path><path d="M538 902L537 511" stroke-width="10" stroke="url(#SvgjsLinearGradient1035)" stroke-linecap="round" class="Up"></path><path d="M728 560L727 931" stroke-width="10" stroke="url(#SvgjsLinearGradient1035)" stroke-linecap="round" class="Up"></path></g><defs><mask id="SvgjsMask1034"><rect width="1000" height="1000" fill="#ffffff"></rect></mask><linearGradient x1="0%" y1="100%" x2="0%" y2="0%" id="SvgjsLinearGradient1035"><stop stop-color="rgba(174, 140, 250, 0)" offset="0"></stop><stop stop-color="rgba(174, 140, 250, 1)" offset="1"></stop></linearGradient><linearGradient x1="0%" y1="0%" x2="0%" y2="100%" id="SvgjsLinearGradient1036"><stop stop-color="rgba(174, 140, 250, 0)" offset="0"></stop><stop stop-color="rgba(174, 140, 250, 1)" offset="1"></stop></linearGradient></defs></svg>